<?xml version="1.0" encoding="UTF-8"?>
<!DOCTYPE svg PUBLIC "-//W3C//DTD SVG 1.1//EN" "http://www.w3.org/Graphics/SVG/1.1/DTD/svg11.dtd">
<svg xmlns="http://www.w3.org/2000/svg" version="1.1" width="900px" height="900px" style="shape-rendering:geometricPrecision; text-rendering:geometricPrecision; image-rendering:optimizeQuality; fill-rule:evenodd; clip-rule:evenodd" xmlns:xlink="http://www.w3.org/1999/xlink">
<g><path style="opacity:1" fill="#05192d" d="M -0.5,-0.5 C 299.5,-0.5 599.5,-0.5 899.5,-0.5C 899.5,299.5 899.5,599.5 899.5,899.5C 599.5,899.5 299.5,899.5 -0.5,899.5C -0.5,599.5 -0.5,299.5 -0.5,-0.5 Z"/></g>
<g><path style="opacity:1" fill="#e6393e" d="M 61.5,196.5 C 64.8606,197.203 65.1939,198.537 62.5,200.5C 60.3576,199.563 60.0243,198.23 61.5,196.5 Z"/></g>
<g><path style="opacity:1" fill="#e6393e" d="M 81.5,196.5 C 84.8606,197.203 85.1939,198.537 82.5,200.5C 80.3576,199.563 80.0243,198.23 81.5,196.5 Z"/></g>
<g><path style="opacity:1" fill="#e6393e" d="M 101.5,196.5 C 104.861,197.203 105.194,198.537 102.5,200.5C 100.358,199.563 100.024,198.23 101.5,196.5 Z"/></g>
<g><path style="opacity:1" fill="#e6393e" d="M 121.5,196.5 C 124.861,197.203 125.194,198.537 122.5,200.5C 120.358,199.563 120.024,198.23 121.5,196.5 Z"/></g>
<g><path style="opacity:1" fill="#e6393e" d="M 141.5,196.5 C 144.861,197.203 145.194,198.537 142.5,200.5C 140.358,199.563 140.024,198.23 141.5,196.5 Z"/></g>
<g><path style="opacity:1" fill="#e6393e" d="M 161.5,196.5 C 164.861,197.203 165.194,198.537 162.5,200.5C 160.358,199.563 160.024,198.23 161.5,196.5 Z"/></g>
<g><path style="opacity:1" fill="#e6393e" d="M 181.5,196.5 C 184.861,197.203 185.194,198.537 182.5,200.5C 180.358,199.563 180.024,198.23 181.5,196.5 Z"/></g>
<g><path style="opacity:1" fill="#e6393e" d="M 201.5,196.5 C 204.861,197.203 205.194,198.537 202.5,200.5C 200.358,199.563 200.024,198.23 201.5,196.5 Z"/></g>
<g><path style="opacity:1" fill="#e6393e" d="M 221.5,196.5 C 224.861,197.203 225.194,198.537 222.5,200.5C 220.358,199.563 220.024,198.23 221.5,196.5 Z"/></g>
<g><path style="opacity:1" fill="#e6393e" d="M 241.5,196.5 C 244.861,197.203 245.194,198.537 242.5,200.5C 240.358,199.563 240.024,198.23 241.5,196.5 Z"/></g>
<g><path style="opacity:1" fill="#e6393e" d="M 261.5,196.5 C 264.861,197.203 265.194,198.537 262.5,200.5C 260.358,199.563 260.024,198.23 261.5,196.5 Z"/></g>
<g><path style="opacity:1" fill="#e6393e" d="M 281.5,196.5 C 284.861,197.203 285.194,198.537 282.5,200.5C 280.358,199.563 280.024,198.23 281.5,196.5 Z"/></g>
<g><path style="opacity:1" fill="#e6393e" d="M 301.5,196.5 C 304.861,197.203 305.194,198.537 302.5,200.5C 300.358,199.563 300.024,198.23 301.5,196.5 Z"/></g>
<g><path style="opacity:1" fill="#e6393e" d="M 321.5,196.5 C 324.861,197.203 325.194,198.537 322.5,200.5C 320.358,199.563 320.024,198.23 321.5,196.5 Z"/></g>
<g><path style="opacity:1" fill="#e6393e" d="M 341.5,196.5 C 344.861,197.203 345.194,198.537 342.5,200.5C 340.358,199.563 340.024,198.23 341.5,196.5 Z"/></g>
<g><path style="opacity:1" fill="#e6393e" d="M 361.5,196.5 C 364.861,197.203 365.194,198.537 362.5,200.5C 360.358,199.563 360.024,198.23 361.5,196.5 Z"/></g>
<g><path style="opacity:1" fill="#e6393e" d="M 61.5,216.5 C 64.8606,217.203 65.1939,218.537 62.5,220.5C 60.3576,219.563 60.0243,218.23 61.5,216.5 Z"/></g>
<g><path style="opacity:1" fill="#e6393e" d="M 81.5,216.5 C 84.8606,217.203 85.1939,218.537 82.5,220.5C 80.3576,219.563 80.0243,218.23 81.5,216.5 Z"/></g>
<g><path style="opacity:1" fill="#e6393e" d="M 101.5,216.5 C 104.861,217.203 105.194,218.537 102.5,220.5C 100.358,219.563 100.024,218.23 101.5,216.5 Z"/></g>
<g><path style="opacity:1" fill="#e6393e" d="M 121.5,216.5 C 124.861,217.203 125.194,218.537 122.5,220.5C 120.358,219.563 120.024,218.23 121.5,216.5 Z"/></g>
<g><path style="opacity:1" fill="#e6393e" d="M 141.5,216.5 C 144.861,217.203 145.194,218.537 142.5,220.5C 140.358,219.563 140.024,218.23 141.5,216.5 Z"/></g>
<g><path style="opacity:1" fill="#e6393e" d="M 161.5,216.5 C 164.861,217.203 165.194,218.537 162.5,220.5C 160.358,219.563 160.024,218.23 161.5,216.5 Z"/></g>
<g><path style="opacity:1" fill="#e6393e" d="M 181.5,216.5 C 184.861,217.203 185.194,218.537 182.5,220.5C 180.358,219.563 180.024,218.23 181.5,216.5 Z"/></g>
<g><path style="opacity:1" fill="#e6393e" d="M 201.5,216.5 C 204.861,217.203 205.194,218.537 202.5,220.5C 200.358,219.563 200.024,218.23 201.5,216.5 Z"/></g>
<g><path style="opacity:1" fill="#e6393e" d="M 221.5,216.5 C 224.861,217.203 225.194,218.537 222.5,220.5C 220.358,219.563 220.024,218.23 221.5,216.5 Z"/></g>
<g><path style="opacity:1" fill="#e6393e" d="M 241.5,216.5 C 244.861,217.203 245.194,218.537 242.5,220.5C 240.358,219.563 240.024,218.23 241.5,216.5 Z"/></g>
<g><path style="opacity:1" fill="#e6393e" d="M 261.5,216.5 C 264.861,217.203 265.194,218.537 262.5,220.5C 260.358,219.563 260.024,218.23 261.5,216.5 Z"/></g>
<g><path style="opacity:1" fill="#e6393e" d="M 281.5,216.5 C 284.861,217.203 285.194,218.537 282.5,220.5C 280.358,219.563 280.024,218.23 281.5,216.5 Z"/></g>
<g><path style="opacity:1" fill="#e6393e" d="M 301.5,216.5 C 304.861,217.203 305.194,218.537 302.5,220.5C 300.358,219.563 300.024,218.23 301.5,216.5 Z"/></g>
<g><path style="opacity:1" fill="#e6393e" d="M 321.5,216.5 C 324.861,217.203 325.194,218.537 322.5,220.5C 320.358,219.563 320.024,218.23 321.5,216.5 Z"/></g>
<g><path style="opacity:1" fill="#e6393e" d="M 341.5,216.5 C 344.861,217.203 345.194,218.537 342.5,220.5C 340.358,219.563 340.024,218.23 341.5,216.5 Z"/></g>
<g><path style="opacity:1" fill="#e6393e" d="M 361.5,216.5 C 364.861,217.203 365.194,218.537 362.5,220.5C 360.358,219.563 360.024,218.23 361.5,216.5 Z"/></g>
<g><path style="opacity:1" fill="#e6393e" d="M 61.5,236.5 C 64.8606,237.203 65.1939,238.537 62.5,240.5C 60.3576,239.563 60.0243,238.23 61.5,236.5 Z"/></g>
<g><path style="opacity:1" fill="#e6393e" d="M 81.5,236.5 C 84.8606,237.203 85.1939,238.537 82.5,240.5C 80.3576,239.563 80.0243,238.23 81.5,236.5 Z"/></g>
<g><path style="opacity:1" fill="#e6393e" d="M 101.5,236.5 C 104.861,237.203 105.194,238.537 102.5,240.5C 100.358,239.563 100.024,238.23 101.5,236.5 Z"/></g>
<g><path style="opacity:1" fill="#e6393e" d="M 121.5,236.5 C 124.861,237.203 125.194,238.537 122.5,240.5C 120.358,239.563 120.024,238.23 121.5,236.5 Z"/></g>
<g><path style="opacity:1" fill="#e6393e" d="M 141.5,236.5 C 144.861,237.203 145.194,238.537 142.5,240.5C 140.358,239.563 140.024,238.23 141.5,236.5 Z"/></g>
<g><path style="opacity:1" fill="#e6393e" d="M 161.5,236.5 C 164.861,237.203 165.194,238.537 162.5,240.5C 160.358,239.563 160.024,238.23 161.5,236.5 Z"/></g>
<g><path style="opacity:1" fill="#e6393e" d="M 181.5,236.5 C 184.861,237.203 185.194,238.537 182.5,240.5C 180.358,239.563 180.024,238.23 181.5,236.5 Z"/></g>
<g><path style="opacity:1" fill="#e6393e" d="M 201.5,236.5 C 204.861,237.203 205.194,238.537 202.5,240.5C 200.358,239.563 200.024,238.23 201.5,236.5 Z"/></g>
<g><path style="opacity:1" fill="#e6393e" d="M 221.5,236.5 C 224.861,237.203 225.194,238.537 222.5,240.5C 220.358,239.563 220.024,238.23 221.5,236.5 Z"/></g>
<g><path style="opacity:1" fill="#e6393e" d="M 241.5,236.5 C 244.861,237.203 245.194,238.537 242.5,240.5C 240.358,239.563 240.024,238.23 241.5,236.5 Z"/></g>
<g><path style="opacity:1" fill="#e6393e" d="M 261.5,236.5 C 264.861,237.203 265.194,238.537 262.5,240.5C 260.358,239.563 260.024,238.23 261.5,236.5 Z"/></g>
<g><path style="opacity:1" fill="#e6393e" d="M 281.5,236.5 C 284.861,237.203 285.194,238.537 282.5,240.5C 280.358,239.563 280.024,238.23 281.5,236.5 Z"/></g>
<g><path style="opacity:1" fill="#e6393e" d="M 301.5,236.5 C 304.861,237.203 305.194,238.537 302.5,240.5C 300.358,239.563 300.024,238.23 301.5,236.5 Z"/></g>
<g><path style="opacity:1" fill="#e6393e" d="M 321.5,236.5 C 324.861,237.203 325.194,238.537 322.5,240.5C 320.358,239.563 320.024,238.23 321.5,236.5 Z"/></g>
<g><path style="opacity:1" fill="#e6393e" d="M 341.5,236.5 C 344.861,237.203 345.194,238.537 342.5,240.5C 340.358,239.563 340.024,238.23 341.5,236.5 Z"/></g>
<g><path style="opacity:1" fill="#e6393e" d="M 361.5,236.5 C 364.861,237.203 365.194,238.537 362.5,240.5C 360.358,239.563 360.024,238.23 361.5,236.5 Z"/></g>
<g><path style="opacity:1" fill="#e6393e" d="M 61.5,256.5 C 64.8606,257.203 65.1939,258.537 62.5,260.5C 60.3576,259.563 60.0243,258.23 61.5,256.5 Z"/></g>
<g><path style="opacity:1" fill="#e6393e" d="M 81.5,256.5 C 84.8606,257.203 85.1939,258.537 82.5,260.5C 80.3576,259.563 80.0243,258.23 81.5,256.5 Z"/></g>
<g><path style="opacity:1" fill="#e6393e" d="M 101.5,256.5 C 104.861,257.203 105.194,258.537 102.5,260.5C 100.358,259.563 100.024,258.23 101.5,256.5 Z"/></g>
<g><path style="opacity:1" fill="#e6393e" d="M 121.5,256.5 C 124.861,257.203 125.194,258.537 122.5,260.5C 120.358,259.563 120.024,258.23 121.5,256.5 Z"/></g>
<g><path style="opacity:1" fill="#e6393e" d="M 141.5,256.5 C 144.861,257.203 145.194,258.537 142.5,260.5C 140.358,259.563 140.024,258.23 141.5,256.5 Z"/></g>
<g><path style="opacity:1" fill="#e6393e" d="M 161.5,256.5 C 164.861,257.203 165.194,258.537 162.5,260.5C 160.358,259.563 160.024,258.23 161.5,256.5 Z"/></g>
<g><path style="opacity:1" fill="#e6393e" d="M 181.5,256.5 C 184.861,257.203 185.194,258.537 182.5,260.5C 180.358,259.563 180.024,258.23 181.5,256.5 Z"/></g>
<g><path style="opacity:1" fill="#e6393e" d="M 201.5,256.5 C 204.861,257.203 205.194,258.537 202.5,260.5C 200.358,259.563 200.024,258.23 201.5,256.5 Z"/></g>
<g><path style="opacity:1" fill="#e84346" d="M 224.5,257.5 C 224.5,258.167 224.5,258.833 224.5,259.5C 222.77,260.976 221.437,260.642 220.5,258.5C 221.437,256.358 222.77,256.024 224.5,257.5 Z"/></g>
<g><path style="opacity:1" fill="#fdfdfd" d="M 281.5,276.5 C 281.989,277.995 282.655,279.329 283.5,280.5C 288.928,299.447 294.928,318.114 301.5,336.5C 301.433,337.959 301.766,339.292 302.5,340.5C 304.968,348.571 307.635,356.571 310.5,364.5C 322.234,329.632 333.567,294.632 344.5,259.5C 344.5,258.833 344.5,258.167 344.5,257.5C 361.756,256.515 379.09,256.181 396.5,256.5C 396.5,309.833 396.5,363.167 396.5,416.5C 385.5,416.5 374.5,416.5 363.5,416.5C 362.833,416.5 362.167,416.5 361.5,416.5C 360.167,416.5 358.833,416.5 357.5,416.5C 357.874,380.812 358.708,345.145 360,309.5C 354.394,325.486 348.894,341.486 343.5,357.5C 342.89,358.391 342.557,359.391 342.5,360.5C 336.168,379.162 329.835,397.828 323.5,416.5C 322.833,416.5 322.167,416.5 321.5,416.5C 315.5,416.5 309.5,416.5 303.5,416.5C 302.833,416.5 302.167,416.5 301.5,416.5C 299.549,416.773 298.049,416.107 297,414.5C 292.901,402.697 288.735,391.031 284.5,379.5C 284.443,378.391 284.11,377.391 283.5,376.5C 277.367,357.433 271.033,338.433 264.5,319.5C 264.443,318.391 264.11,317.391 263.5,316.5C 261.097,308.401 260.097,308.735 260.5,317.5C 260.5,318.167 260.5,318.833 260.5,319.5C 260.375,325.203 260.708,330.87 261.5,336.5C 261.5,337.833 261.5,339.167 261.5,340.5C 261.179,346.026 261.512,351.36 262.5,356.5C 262.5,357.833 262.5,359.167 262.5,360.5C 262.5,362.5 262.5,364.5 262.5,366.5C 262.5,383.167 262.5,399.833 262.5,416.5C 262.167,416.5 261.833,416.5 261.5,416.5C 255.5,416.5 249.5,416.5 243.5,416.5C 242.833,416.5 242.167,416.5 241.5,416.5C 235.833,416.5 230.167,416.5 224.5,416.5C 224.5,410.833 224.5,405.167 224.5,399.5C 224.5,398.833 224.5,398.167 224.5,397.5C 224.5,391.5 224.5,385.5 224.5,379.5C 224.5,378.833 224.5,378.167 224.5,377.5C 224.5,371.5 224.5,365.5 224.5,359.5C 224.5,358.833 224.5,358.167 224.5,357.5C 224.5,351.5 224.5,345.5 224.5,339.5C 224.5,338.833 224.5,338.167 224.5,337.5C 224.5,331.5 224.5,325.5 224.5,319.5C 224.5,318.833 224.5,318.167 224.5,317.5C 224.5,311.5 224.5,305.5 224.5,299.5C 224.5,298.833 224.5,298.167 224.5,297.5C 224.5,291.5 224.5,285.5 224.5,279.5C 224.5,278.833 224.5,278.167 224.5,277.5C 224.5,271.5 224.5,265.5 224.5,259.5C 224.5,258.833 224.5,258.167 224.5,257.5C 241.338,256.173 258.338,256.173 275.5,257.5C 277.908,263.724 279.908,270.057 281.5,276.5 Z"/></g>
<g><path style="opacity:1" fill="#e6393e" d="M 344.5,257.5 C 344.5,258.167 344.5,258.833 344.5,259.5C 342.77,260.976 341.437,260.642 340.5,258.5C 341.437,256.358 342.77,256.024 344.5,257.5 Z"/></g>
<g><path style="opacity:1" fill="#e6393e" d="M 321.5,256.5 C 324.861,257.203 325.194,258.537 322.5,260.5C 320.358,259.563 320.024,258.23 321.5,256.5 Z"/></g>
<g><path style="opacity:1" fill="#e6393e" d="M 301.5,256.5 C 304.861,257.203 305.194,258.537 302.5,260.5C 300.358,259.563 300.024,258.23 301.5,256.5 Z"/></g>
<g><path style="opacity:1" fill="#e6393e" d="M 281.5,256.5 C 284.861,257.203 285.194,258.537 282.5,260.5C 280.358,259.563 280.024,258.23 281.5,256.5 Z"/></g>
<g><path style="opacity:1" fill="#fafafb" d="M 419.5,256.5 C 432.833,256.5 446.167,256.5 459.5,256.5C 459.333,293.835 459.5,331.168 460,368.5C 461.747,381.91 469.413,388.577 483,388.5C 495.55,388.727 503.216,382.727 506,370.5C 506.5,332.501 506.667,294.501 506.5,256.5C 519.833,256.5 533.167,256.5 546.5,256.5C 546.667,292.502 546.5,328.502 546,364.5C 544.164,393.004 529.331,410.504 501.5,417C 488.82,418.921 476.154,418.921 463.5,417C 438.537,410.706 424.037,394.872 420,369.5C 419.5,331.835 419.333,294.168 419.5,256.5 Z"/></g>
<g><path style="opacity:1" fill="#fefefe" d="M 569.5,256.5 C 582.5,256.5 595.5,256.5 608.5,256.5C 608.5,299.833 608.5,343.167 608.5,386.5C 630.833,386.5 653.167,386.5 675.5,386.5C 675.5,396.5 675.5,406.5 675.5,416.5C 640.167,416.5 604.833,416.5 569.5,416.5C 569.5,363.167 569.5,309.833 569.5,256.5 Z"/></g>
<g><path style="opacity:1" fill="#fdfdfe" d="M 793.5,256.5 C 793.5,266.5 793.5,276.5 793.5,286.5C 777.658,286.17 761.991,286.504 746.5,287.5C 746.5,330.5 746.5,373.5 746.5,416.5C 733.5,416.5 720.5,416.5 707.5,416.5C 707.5,373.167 707.5,329.833 707.5,286.5C 691.833,286.5 676.167,286.5 660.5,286.5C 660.5,276.5 660.5,266.5 660.5,256.5C 704.833,256.5 749.167,256.5 793.5,256.5 Z"/></g>
<g><path style="opacity:1" fill="#e6393e" d="M 61.5,276.5 C 64.8606,277.203 65.1939,278.537 62.5,280.5C 60.3576,279.563 60.0243,278.23 61.5,276.5 Z"/></g>
<g><path style="opacity:1" fill="#e6393e" d="M 81.5,276.5 C 84.8606,277.203 85.1939,278.537 82.5,280.5C 80.3576,279.563 80.0243,278.23 81.5,276.5 Z"/></g>
<g><path style="opacity:1" fill="#e6393e" d="M 101.5,276.5 C 104.861,277.203 105.194,278.537 102.5,280.5C 100.358,279.563 100.024,278.23 101.5,276.5 Z"/></g>
<g><path style="opacity:1" fill="#e6393e" d="M 121.5,276.5 C 124.861,277.203 125.194,278.537 122.5,280.5C 120.358,279.563 120.024,278.23 121.5,276.5 Z"/></g>
<g><path style="opacity:1" fill="#e6393e" d="M 141.5,276.5 C 144.861,277.203 145.194,278.537 142.5,280.5C 140.358,279.563 140.024,278.23 141.5,276.5 Z"/></g>
<g><path style="opacity:1" fill="#e6393e" d="M 161.5,276.5 C 164.861,277.203 165.194,278.537 162.5,280.5C 160.358,279.563 160.024,278.23 161.5,276.5 Z"/></g>
<g><path style="opacity:1" fill="#e6393e" d="M 181.5,276.5 C 184.861,277.203 185.194,278.537 182.5,280.5C 180.358,279.563 180.024,278.23 181.5,276.5 Z"/></g>
<g><path style="opacity:1" fill="#e6393e" d="M 201.5,276.5 C 204.861,277.203 205.194,278.537 202.5,280.5C 200.358,279.563 200.024,278.23 201.5,276.5 Z"/></g>
<g><path style="opacity:1" fill="#e84346" d="M 224.5,277.5 C 224.5,278.167 224.5,278.833 224.5,279.5C 222.77,280.976 221.437,280.642 220.5,278.5C 221.437,276.358 222.77,276.024 224.5,277.5 Z"/></g>
<g><path style="opacity:1" fill="#e9494c" d="M 281.5,276.5 C 284.336,276.837 285.002,278.171 283.5,280.5C 282.655,279.329 281.989,277.995 281.5,276.5 Z"/></g>
<g><path style="opacity:1" fill="#e6393e" d="M 301.5,276.5 C 304.861,277.203 305.194,278.537 302.5,280.5C 300.358,279.563 300.024,278.23 301.5,276.5 Z"/></g>
<g><path style="opacity:1" fill="#e6393e" d="M 321.5,276.5 C 324.861,277.203 325.194,278.537 322.5,280.5C 320.358,279.563 320.024,278.23 321.5,276.5 Z"/></g>
<g><path style="opacity:1" fill="#7b8590" d="M 793.5,256.5 C 794.494,266.653 794.828,276.986 794.5,287.5C 778.5,287.5 762.5,287.5 746.5,287.5C 761.991,286.504 777.658,286.17 793.5,286.5C 793.5,276.5 793.5,266.5 793.5,256.5 Z"/></g>
<g><path style="opacity:1" fill="#435261" d="M 660.5,286.5 C 676.167,286.5 691.833,286.5 707.5,286.5C 707.5,329.833 707.5,373.167 707.5,416.5C 706.501,373.67 706.168,330.67 706.5,287.5C 690.991,287.83 675.658,287.496 660.5,286.5 Z"/></g>
<g><path style="opacity:1" fill="#e6393e" d="M 61.5,296.5 C 64.8606,297.203 65.1939,298.537 62.5,300.5C 60.3576,299.563 60.0243,298.23 61.5,296.5 Z"/></g>
<g><path style="opacity:1" fill="#e6393e" d="M 81.5,296.5 C 84.8606,297.203 85.1939,298.537 82.5,300.5C 80.3576,299.563 80.0243,298.23 81.5,296.5 Z"/></g>
<g><path style="opacity:1" fill="#e6393e" d="M 101.5,296.5 C 104.861,297.203 105.194,298.537 102.5,300.5C 100.358,299.563 100.024,298.23 101.5,296.5 Z"/></g>
<g><path style="opacity:1" fill="#e6393e" d="M 121.5,296.5 C 124.861,297.203 125.194,298.537 122.5,300.5C 120.358,299.563 120.024,298.23 121.5,296.5 Z"/></g>
<g><path style="opacity:1" fill="#e6393e" d="M 141.5,296.5 C 144.861,297.203 145.194,298.537 142.5,300.5C 140.358,299.563 140.024,298.23 141.5,296.5 Z"/></g>
<g><path style="opacity:1" fill="#e6393e" d="M 161.5,296.5 C 164.861,297.203 165.194,298.537 162.5,300.5C 160.358,299.563 160.024,298.23 161.5,296.5 Z"/></g>
<g><path style="opacity:1" fill="#e6393e" d="M 181.5,296.5 C 184.861,297.203 185.194,298.537 182.5,300.5C 180.358,299.563 180.024,298.23 181.5,296.5 Z"/></g>
<g><path style="opacity:1" fill="#e6393e" d="M 201.5,296.5 C 204.861,297.203 205.194,298.537 202.5,300.5C 200.358,299.563 200.024,298.23 201.5,296.5 Z"/></g>
<g><path style="opacity:1" fill="#e84346" d="M 224.5,297.5 C 224.5,298.167 224.5,298.833 224.5,299.5C 222.77,300.976 221.437,300.642 220.5,298.5C 221.437,296.358 222.77,296.024 224.5,297.5 Z"/></g>
<g><path style="opacity:1" fill="#e6393e" d="M 301.5,296.5 C 304.861,297.203 305.194,298.537 302.5,300.5C 300.358,299.563 300.024,298.23 301.5,296.5 Z"/></g>
<g><path style="opacity:1" fill="#e6393e" d="M 321.5,296.5 C 324.861,297.203 325.194,298.537 322.5,300.5C 320.358,299.563 320.024,298.23 321.5,296.5 Z"/></g>
<g><path style="opacity:1" fill="#1a2a3d" d="M 263.5,316.5 C 262.391,316.557 261.391,316.89 260.5,317.5C 260.097,308.735 261.097,308.401 263.5,316.5 Z"/></g>
<g><path style="opacity:1" fill="#e6393e" d="M 61.5,316.5 C 64.8606,317.203 65.1939,318.537 62.5,320.5C 60.3576,319.563 60.0243,318.23 61.5,316.5 Z"/></g>
<g><path style="opacity:1" fill="#e6393e" d="M 81.5,316.5 C 84.8606,317.203 85.1939,318.537 82.5,320.5C 80.3576,319.563 80.0243,318.23 81.5,316.5 Z"/></g>
<g><path style="opacity:1" fill="#e6393e" d="M 101.5,316.5 C 104.861,317.203 105.194,318.537 102.5,320.5C 100.358,319.563 100.024,318.23 101.5,316.5 Z"/></g>
<g><path style="opacity:1" fill="#e6393e" d="M 121.5,316.5 C 124.861,317.203 125.194,318.537 122.5,320.5C 120.358,319.563 120.024,318.23 121.5,316.5 Z"/></g>
<g><path style="opacity:1" fill="#e6393e" d="M 141.5,316.5 C 144.861,317.203 145.194,318.537 142.5,320.5C 140.358,319.563 140.024,318.23 141.5,316.5 Z"/></g>
<g><path style="opacity:1" fill="#e6393e" d="M 161.5,316.5 C 164.861,317.203 165.194,318.537 162.5,320.5C 160.358,319.563 160.024,318.23 161.5,316.5 Z"/></g>
<g><path style="opacity:1" fill="#e6393e" d="M 181.5,316.5 C 184.861,317.203 185.194,318.537 182.5,320.5C 180.358,319.563 180.024,318.23 181.5,316.5 Z"/></g>
<g><path style="opacity:1" fill="#e6393e" d="M 201.5,316.5 C 204.861,317.203 205.194,318.537 202.5,320.5C 200.358,319.563 200.024,318.23 201.5,316.5 Z"/></g>
<g><path style="opacity:1" fill="#e84346" d="M 224.5,317.5 C 224.5,318.167 224.5,318.833 224.5,319.5C 222.77,320.976 221.437,320.642 220.5,318.5C 221.437,316.358 222.77,316.024 224.5,317.5 Z"/></g>
<g><path style="opacity:1" fill="#e84347" d="M 263.5,316.5 C 264.11,317.391 264.443,318.391 264.5,319.5C 263.167,320.833 261.833,320.833 260.5,319.5C 260.5,318.833 260.5,318.167 260.5,317.5C 261.391,316.89 262.391,316.557 263.5,316.5 Z"/></g>
<g><path style="opacity:1" fill="#e6393e" d="M 301.5,316.5 C 304.861,317.203 305.194,318.537 302.5,320.5C 300.358,319.563 300.024,318.23 301.5,316.5 Z"/></g>
<g><path style="opacity:1" fill="#e6393e" d="M 321.5,316.5 C 324.861,317.203 325.194,318.537 322.5,320.5C 320.358,319.563 320.024,318.23 321.5,316.5 Z"/></g>
<g><path style="opacity:1" fill="#e6393e" d="M 61.5,336.5 C 64.8606,337.203 65.1939,338.537 62.5,340.5C 60.3576,339.563 60.0243,338.23 61.5,336.5 Z"/></g>
<g><path style="opacity:1" fill="#e6393e" d="M 81.5,336.5 C 84.8606,337.203 85.1939,338.537 82.5,340.5C 80.3576,339.563 80.0243,338.23 81.5,336.5 Z"/></g>
<g><path style="opacity:1" fill="#e6393e" d="M 101.5,336.5 C 104.861,337.203 105.194,338.537 102.5,340.5C 100.358,339.563 100.024,338.23 101.5,336.5 Z"/></g>
<g><path style="opacity:1" fill="#e6393e" d="M 121.5,336.5 C 124.861,337.203 125.194,338.537 122.5,340.5C 120.358,339.563 120.024,338.23 121.5,336.5 Z"/></g>
<g><path style="opacity:1" fill="#e6393e" d="M 141.5,336.5 C 144.861,337.203 145.194,338.537 142.5,340.5C 140.358,339.563 140.024,338.23 141.5,336.5 Z"/></g>
<g><path style="opacity:1" fill="#e6393e" d="M 161.5,336.5 C 164.861,337.203 165.194,338.537 162.5,340.5C 160.358,339.563 160.024,338.23 161.5,336.5 Z"/></g>
<g><path style="opacity:1" fill="#e6393e" d="M 181.5,336.5 C 184.861,337.203 185.194,338.537 182.5,340.5C 180.358,339.563 180.024,338.23 181.5,336.5 Z"/></g>
<g><path style="opacity:1" fill="#e6393e" d="M 201.5,336.5 C 204.861,337.203 205.194,338.537 202.5,340.5C 200.358,339.563 200.024,338.23 201.5,336.5 Z"/></g>
<g><path style="opacity:1" fill="#e84346" d="M 224.5,337.5 C 224.5,338.167 224.5,338.833 224.5,339.5C 222.77,340.976 221.437,340.642 220.5,338.5C 221.437,336.358 222.77,336.024 224.5,337.5 Z"/></g>
<g><path style="opacity:1" fill="#e6393e" d="M 261.5,336.5 C 265.5,337.833 265.5,339.167 261.5,340.5C 261.5,339.167 261.5,337.833 261.5,336.5 Z"/></g>
<g><path style="opacity:1" fill="#e73d42" d="M 301.5,336.5 C 304.884,337.244 305.218,338.577 302.5,340.5C 301.766,339.292 301.433,337.959 301.5,336.5 Z"/></g>
<g><path style="opacity:1" fill="#e6393e" d="M 61.5,356.5 C 64.8606,357.203 65.1939,358.537 62.5,360.5C 60.3576,359.563 60.0243,358.23 61.5,356.5 Z"/></g>
<g><path style="opacity:1" fill="#e6393e" d="M 81.5,356.5 C 84.8606,357.203 85.1939,358.537 82.5,360.5C 80.3576,359.563 80.0243,358.23 81.5,356.5 Z"/></g>
<g><path style="opacity:1" fill="#e6393e" d="M 101.5,356.5 C 104.861,357.203 105.194,358.537 102.5,360.5C 100.358,359.563 100.024,358.23 101.5,356.5 Z"/></g>
<g><path style="opacity:1" fill="#e6393e" d="M 121.5,356.5 C 124.861,357.203 125.194,358.537 122.5,360.5C 120.358,359.563 120.024,358.23 121.5,356.5 Z"/></g>
<g><path style="opacity:1" fill="#e6393e" d="M 141.5,356.5 C 144.861,357.203 145.194,358.537 142.5,360.5C 140.358,359.563 140.024,358.23 141.5,356.5 Z"/></g>
<g><path style="opacity:1" fill="#e6393e" d="M 161.5,356.5 C 164.861,357.203 165.194,358.537 162.5,360.5C 160.358,359.563 160.024,358.23 161.5,356.5 Z"/></g>
<g><path style="opacity:1" fill="#e6393e" d="M 181.5,356.5 C 184.861,357.203 185.194,358.537 182.5,360.5C 180.358,359.563 180.024,358.23 181.5,356.5 Z"/></g>
<g><path style="opacity:1" fill="#e6393e" d="M 201.5,356.5 C 204.861,357.203 205.194,358.537 202.5,360.5C 200.358,359.563 200.024,358.23 201.5,356.5 Z"/></g>
<g><path style="opacity:1" fill="#e84346" d="M 224.5,357.5 C 224.5,358.167 224.5,358.833 224.5,359.5C 222.77,360.976 221.437,360.642 220.5,358.5C 221.437,356.358 222.77,356.024 224.5,357.5 Z"/></g>
<g><path style="opacity:1" fill="#e6393e" d="M 262.5,356.5 C 265.167,357.833 265.167,359.167 262.5,360.5C 262.5,359.167 262.5,357.833 262.5,356.5 Z"/></g>
<g><path style="opacity:1" fill="#ee6767" d="M 343.5,357.5 C 344.715,358.779 344.382,359.779 342.5,360.5C 342.557,359.391 342.89,358.391 343.5,357.5 Z"/></g>
<g><path style="opacity:1" fill="#e6393e" d="M 61.5,376.5 C 64.8606,377.203 65.1939,378.537 62.5,380.5C 60.3576,379.563 60.0243,378.23 61.5,376.5 Z"/></g>
<g><path style="opacity:1" fill="#e6393e" d="M 81.5,376.5 C 84.8606,377.203 85.1939,378.537 82.5,380.5C 80.3576,379.563 80.0243,378.23 81.5,376.5 Z"/></g>
<g><path style="opacity:1" fill="#e6393e" d="M 101.5,376.5 C 104.861,377.203 105.194,378.537 102.5,380.5C 100.358,379.563 100.024,378.23 101.5,376.5 Z"/></g>
<g><path style="opacity:1" fill="#e6393e" d="M 121.5,376.5 C 124.861,377.203 125.194,378.537 122.5,380.5C 120.358,379.563 120.024,378.23 121.5,376.5 Z"/></g>
<g><path style="opacity:1" fill="#e6393e" d="M 141.5,376.5 C 144.861,377.203 145.194,378.537 142.5,380.5C 140.358,379.563 140.024,378.23 141.5,376.5 Z"/></g>
<g><path style="opacity:1" fill="#e6393e" d="M 161.5,376.5 C 164.861,377.203 165.194,378.537 162.5,380.5C 160.358,379.563 160.024,378.23 161.5,376.5 Z"/></g>
<g><path style="opacity:1" fill="#e6393e" d="M 181.5,376.5 C 184.861,377.203 185.194,378.537 182.5,380.5C 180.358,379.563 180.024,378.23 181.5,376.5 Z"/></g>
<g><path style="opacity:1" fill="#e6393e" d="M 201.5,376.5 C 204.861,377.203 205.194,378.537 202.5,380.5C 200.358,379.563 200.024,378.23 201.5,376.5 Z"/></g>
<g><path style="opacity:1" fill="#e84346" d="M 224.5,377.5 C 224.5,378.167 224.5,378.833 224.5,379.5C 222.77,380.976 221.437,380.642 220.5,378.5C 221.437,376.358 222.77,376.024 224.5,377.5 Z"/></g>
<g><path style="opacity:1" fill="#e73a40" d="M 283.5,376.5 C 284.11,377.391 284.443,378.391 284.5,379.5C 282.77,380.976 281.437,380.642 280.5,378.5C 281.005,377.081 282.005,376.415 283.5,376.5 Z"/></g>
<g><path style="opacity:1" fill="#e6393e" d="M 341.5,376.5 C 344.861,377.203 345.194,378.537 342.5,380.5C 340.358,379.563 340.024,378.23 341.5,376.5 Z"/></g>
<g><path style="opacity:1" fill="#c2b1b4" d="M 262.5,366.5 C 263.224,370.365 263.891,374.365 264.5,378.5C 264.199,391.198 263.865,403.865 263.5,416.5C 263.167,416.5 262.833,416.5 262.5,416.5C 262.5,399.833 262.5,383.167 262.5,366.5 Z"/></g>
<g><path style="opacity:1" fill="#e6393e" d="M 61.5,396.5 C 64.8606,397.203 65.1939,398.537 62.5,400.5C 60.3576,399.563 60.0243,398.23 61.5,396.5 Z"/></g>
<g><path style="opacity:1" fill="#e6393e" d="M 81.5,396.5 C 84.8606,397.203 85.1939,398.537 82.5,400.5C 80.3576,399.563 80.0243,398.23 81.5,396.5 Z"/></g>
<g><path style="opacity:1" fill="#e6393e" d="M 101.5,396.5 C 104.861,397.203 105.194,398.537 102.5,400.5C 100.358,399.563 100.024,398.23 101.5,396.5 Z"/></g>
<g><path style="opacity:1" fill="#e6393e" d="M 121.5,396.5 C 124.861,397.203 125.194,398.537 122.5,400.5C 120.358,399.563 120.024,398.23 121.5,396.5 Z"/></g>
<g><path style="opacity:1" fill="#e6393e" d="M 141.5,396.5 C 144.861,397.203 145.194,398.537 142.5,400.5C 140.358,399.563 140.024,398.23 141.5,396.5 Z"/></g>
<g><path style="opacity:1" fill="#e6393e" d="M 161.5,396.5 C 164.861,397.203 165.194,398.537 162.5,400.5C 160.358,399.563 160.024,398.23 161.5,396.5 Z"/></g>
<g><path style="opacity:1" fill="#e6393e" d="M 181.5,396.5 C 184.861,397.203 185.194,398.537 182.5,400.5C 180.358,399.563 180.024,398.23 181.5,396.5 Z"/></g>
<g><path style="opacity:1" fill="#e6393e" d="M 201.5,396.5 C 204.861,397.203 205.194,398.537 202.5,400.5C 200.358,399.563 200.024,398.23 201.5,396.5 Z"/></g>
<g><path style="opacity:1" fill="#e84346" d="M 224.5,397.5 C 224.5,398.167 224.5,398.833 224.5,399.5C 222.77,400.976 221.437,400.642 220.5,398.5C 221.437,396.358 222.77,396.024 224.5,397.5 Z"/></g>
<g><path style="opacity:1" fill="#e6393e" d="M 281.5,396.5 C 284.861,397.203 285.194,398.537 282.5,400.5C 280.358,399.563 280.024,398.23 281.5,396.5 Z"/></g>
<g><path style="opacity:1" fill="#e6393e" d="M 341.5,396.5 C 344.861,397.203 345.194,398.537 342.5,400.5C 340.358,399.563 340.024,398.23 341.5,396.5 Z"/></g>
<g><path style="opacity:1" fill="#e6393e" d="M 61.5,416.5 C 64.8606,417.203 65.1939,418.537 62.5,420.5C 60.3576,419.563 60.0243,418.23 61.5,416.5 Z"/></g>
<g><path style="opacity:1" fill="#e6393e" d="M 81.5,416.5 C 84.8606,417.203 85.1939,418.537 82.5,420.5C 80.3576,419.563 80.0243,418.23 81.5,416.5 Z"/></g>
<g><path style="opacity:1" fill="#e6393e" d="M 101.5,416.5 C 104.861,417.203 105.194,418.537 102.5,420.5C 100.358,419.563 100.024,418.23 101.5,416.5 Z"/></g>
<g><path style="opacity:1" fill="#e6393e" d="M 121.5,416.5 C 124.861,417.203 125.194,418.537 122.5,420.5C 120.358,419.563 120.024,418.23 121.5,416.5 Z"/></g>
<g><path style="opacity:1" fill="#e6393e" d="M 141.5,416.5 C 144.861,417.203 145.194,418.537 142.5,420.5C 140.358,419.563 140.024,418.23 141.5,416.5 Z"/></g>
<g><path style="opacity:1" fill="#e6393e" d="M 161.5,416.5 C 164.861,417.203 165.194,418.537 162.5,420.5C 160.358,419.563 160.024,418.23 161.5,416.5 Z"/></g>
<g><path style="opacity:1" fill="#e6393e" d="M 181.5,416.5 C 184.861,417.203 185.194,418.537 182.5,420.5C 180.358,419.563 180.024,418.23 181.5,416.5 Z"/></g>
<g><path style="opacity:1" fill="#e6393e" d="M 201.5,416.5 C 204.861,417.203 205.194,418.537 202.5,420.5C 200.358,419.563 200.024,418.23 201.5,416.5 Z"/></g>
<g><path style="opacity:1" fill="#e6393e" d="M 221.5,416.5 C 224.861,417.203 225.194,418.537 222.5,420.5C 220.358,419.563 220.024,418.23 221.5,416.5 Z"/></g>
<g><path style="opacity:1" fill="#e6393e" d="M 241.5,416.5 C 242.167,416.5 242.833,416.5 243.5,416.5C 244.976,418.23 244.642,419.563 242.5,420.5C 240.358,419.563 240.024,418.23 241.5,416.5 Z"/></g>
<g><path style="opacity:1" fill="#e6393e" d="M 261.5,416.5 C 261.833,416.5 262.167,416.5 262.5,416.5C 262.833,416.5 263.167,416.5 263.5,416.5C 264.976,418.23 264.642,419.563 262.5,420.5C 260.358,419.563 260.024,418.23 261.5,416.5 Z"/></g>
<g><path style="opacity:1" fill="#e6393e" d="M 281.5,416.5 C 284.861,417.203 285.194,418.537 282.5,420.5C 280.358,419.563 280.024,418.23 281.5,416.5 Z"/></g>
<g><path style="opacity:1" fill="#e6393e" d="M 301.5,416.5 C 302.167,416.5 302.833,416.5 303.5,416.5C 304.976,418.23 304.642,419.563 302.5,420.5C 300.358,419.563 300.024,418.23 301.5,416.5 Z"/></g>
<g><path style="opacity:1" fill="#e6393e" d="M 321.5,416.5 C 322.167,416.5 322.833,416.5 323.5,416.5C 324.976,418.23 324.642,419.563 322.5,420.5C 320.358,419.563 320.024,418.23 321.5,416.5 Z"/></g>
<g><path style="opacity:1" fill="#e6393e" d="M 341.5,416.5 C 344.861,417.203 345.194,418.537 342.5,420.5C 340.358,419.563 340.024,418.23 341.5,416.5 Z"/></g>
<g><path style="opacity:1" fill="#e6393e" d="M 361.5,416.5 C 362.167,416.5 362.833,416.5 363.5,416.5C 364.976,418.23 364.642,419.563 362.5,420.5C 360.358,419.563 360.024,418.23 361.5,416.5 Z"/></g>
<g><path style="opacity:1" fill="#e6393e" d="M 61.5,436.5 C 64.8606,437.203 65.1939,438.537 62.5,440.5C 60.3576,439.563 60.0243,438.23 61.5,436.5 Z"/></g>
<g><path style="opacity:1" fill="#e6393e" d="M 81.5,436.5 C 84.8606,437.203 85.1939,438.537 82.5,440.5C 80.3576,439.563 80.0243,438.23 81.5,436.5 Z"/></g>
<g><path style="opacity:1" fill="#e6393e" d="M 101.5,436.5 C 104.861,437.203 105.194,438.537 102.5,440.5C 100.358,439.563 100.024,438.23 101.5,436.5 Z"/></g>
<g><path style="opacity:1" fill="#e6393e" d="M 121.5,436.5 C 124.861,437.203 125.194,438.537 122.5,440.5C 120.358,439.563 120.024,438.23 121.5,436.5 Z"/></g>
<g><path style="opacity:1" fill="#e6393e" d="M 141.5,436.5 C 144.861,437.203 145.194,438.537 142.5,440.5C 140.358,439.563 140.024,438.23 141.5,436.5 Z"/></g>
<g><path style="opacity:1" fill="#e6393e" d="M 161.5,436.5 C 164.861,437.203 165.194,438.537 162.5,440.5C 160.358,439.563 160.024,438.23 161.5,436.5 Z"/></g>
<g><path style="opacity:1" fill="#e6393e" d="M 181.5,436.5 C 184.861,437.203 185.194,438.537 182.5,440.5C 180.358,439.563 180.024,438.23 181.5,436.5 Z"/></g>
<g><path style="opacity:1" fill="#e6393e" d="M 201.5,436.5 C 204.861,437.203 205.194,438.537 202.5,440.5C 200.358,439.563 200.024,438.23 201.5,436.5 Z"/></g>
<g><path style="opacity:1" fill="#e6393e" d="M 221.5,436.5 C 224.861,437.203 225.194,438.537 222.5,440.5C 220.358,439.563 220.024,438.23 221.5,436.5 Z"/></g>
<g><path style="opacity:1" fill="#e6393e" d="M 241.5,436.5 C 244.861,437.203 245.194,438.537 242.5,440.5C 240.358,439.563 240.024,438.23 241.5,436.5 Z"/></g>
<g><path style="opacity:1" fill="#e6393e" d="M 261.5,436.5 C 264.861,437.203 265.194,438.537 262.5,440.5C 260.358,439.563 260.024,438.23 261.5,436.5 Z"/></g>
<g><path style="opacity:1" fill="#e6393e" d="M 281.5,436.5 C 284.861,437.203 285.194,438.537 282.5,440.5C 280.358,439.563 280.024,438.23 281.5,436.5 Z"/></g>
<g><path style="opacity:1" fill="#e6393e" d="M 301.5,436.5 C 304.861,437.203 305.194,438.537 302.5,440.5C 300.358,439.563 300.024,438.23 301.5,436.5 Z"/></g>
<g><path style="opacity:1" fill="#e6393e" d="M 321.5,436.5 C 324.861,437.203 325.194,438.537 322.5,440.5C 320.358,439.563 320.024,438.23 321.5,436.5 Z"/></g>
<g><path style="opacity:1" fill="#e6393e" d="M 341.5,436.5 C 344.861,437.203 345.194,438.537 342.5,440.5C 340.358,439.563 340.024,438.23 341.5,436.5 Z"/></g>
<g><path style="opacity:1" fill="#e6393e" d="M 361.5,436.5 C 364.861,437.203 365.194,438.537 362.5,440.5C 360.358,439.563 360.024,438.23 361.5,436.5 Z"/></g>
<g><path style="opacity:1" fill="#e6393e" d="M 61.5,456.5 C 64.8606,457.203 65.1939,458.537 62.5,460.5C 60.3576,459.563 60.0243,458.23 61.5,456.5 Z"/></g>
<g><path style="opacity:1" fill="#e6393e" d="M 81.5,456.5 C 84.8606,457.203 85.1939,458.537 82.5,460.5C 80.3576,459.563 80.0243,458.23 81.5,456.5 Z"/></g>
<g><path style="opacity:1" fill="#e6393e" d="M 101.5,456.5 C 104.861,457.203 105.194,458.537 102.5,460.5C 100.358,459.563 100.024,458.23 101.5,456.5 Z"/></g>
<g><path style="opacity:1" fill="#e6393e" d="M 121.5,456.5 C 124.861,457.203 125.194,458.537 122.5,460.5C 120.358,459.563 120.024,458.23 121.5,456.5 Z"/></g>
<g><path style="opacity:1" fill="#e6393e" d="M 141.5,456.5 C 144.861,457.203 145.194,458.537 142.5,460.5C 140.358,459.563 140.024,458.23 141.5,456.5 Z"/></g>
<g><path style="opacity:1" fill="#e6393e" d="M 161.5,456.5 C 164.861,457.203 165.194,458.537 162.5,460.5C 160.358,459.563 160.024,458.23 161.5,456.5 Z"/></g>
<g><path style="opacity:1" fill="#e6393e" d="M 181.5,456.5 C 184.861,457.203 185.194,458.537 182.5,460.5C 180.358,459.563 180.024,458.23 181.5,456.5 Z"/></g>
<g><path style="opacity:1" fill="#e6393e" d="M 201.5,456.5 C 204.861,457.203 205.194,458.537 202.5,460.5C 200.358,459.563 200.024,458.23 201.5,456.5 Z"/></g>
<g><path style="opacity:1" fill="#e6393e" d="M 221.5,456.5 C 224.861,457.203 225.194,458.537 222.5,460.5C 220.358,459.563 220.024,458.23 221.5,456.5 Z"/></g>
<g><path style="opacity:1" fill="#e6393e" d="M 241.5,456.5 C 244.861,457.203 245.194,458.537 242.5,460.5C 240.358,459.563 240.024,458.23 241.5,456.5 Z"/></g>
<g><path style="opacity:1" fill="#e6393e" d="M 261.5,456.5 C 264.861,457.203 265.194,458.537 262.5,460.5C 260.358,459.563 260.024,458.23 261.5,456.5 Z"/></g>
<g><path style="opacity:1" fill="#e6393e" d="M 281.5,456.5 C 284.861,457.203 285.194,458.537 282.5,460.5C 280.358,459.563 280.024,458.23 281.5,456.5 Z"/></g>
<g><path style="opacity:1" fill="#e6393e" d="M 301.5,456.5 C 304.861,457.203 305.194,458.537 302.5,460.5C 300.358,459.563 300.024,458.23 301.5,456.5 Z"/></g>
<g><path style="opacity:1" fill="#e6393e" d="M 321.5,456.5 C 324.861,457.203 325.194,458.537 322.5,460.5C 320.358,459.563 320.024,458.23 321.5,456.5 Z"/></g>
<g><path style="opacity:1" fill="#e6393e" d="M 341.5,456.5 C 344.861,457.203 345.194,458.537 342.5,460.5C 340.358,459.563 340.024,458.23 341.5,456.5 Z"/></g>
<g><path style="opacity:1" fill="#e6393e" d="M 361.5,456.5 C 364.861,457.203 365.194,458.537 362.5,460.5C 360.358,459.563 360.024,458.23 361.5,456.5 Z"/></g>
<g><path style="opacity:1" fill="#e6393e" d="M 61.5,476.5 C 64.8606,477.203 65.1939,478.537 62.5,480.5C 60.3576,479.563 60.0243,478.23 61.5,476.5 Z"/></g>
<g><path style="opacity:1" fill="#e6393e" d="M 81.5,476.5 C 84.8606,477.203 85.1939,478.537 82.5,480.5C 80.3576,479.563 80.0243,478.23 81.5,476.5 Z"/></g>
<g><path style="opacity:1" fill="#e6393e" d="M 101.5,476.5 C 104.861,477.203 105.194,478.537 102.5,480.5C 100.358,479.563 100.024,478.23 101.5,476.5 Z"/></g>
<g><path style="opacity:1" fill="#e6393e" d="M 121.5,476.5 C 124.861,477.203 125.194,478.537 122.5,480.5C 120.358,479.563 120.024,478.23 121.5,476.5 Z"/></g>
<g><path style="opacity:1" fill="#e6393e" d="M 141.5,476.5 C 144.861,477.203 145.194,478.537 142.5,480.5C 140.358,479.563 140.024,478.23 141.5,476.5 Z"/></g>
<g><path style="opacity:1" fill="#e6393e" d="M 161.5,476.5 C 164.861,477.203 165.194,478.537 162.5,480.5C 160.358,479.563 160.024,478.23 161.5,476.5 Z"/></g>
<g><path style="opacity:1" fill="#e6393e" d="M 181.5,476.5 C 184.861,477.203 185.194,478.537 182.5,480.5C 180.358,479.563 180.024,478.23 181.5,476.5 Z"/></g>
<g><path style="opacity:1" fill="#e6393e" d="M 201.5,476.5 C 204.861,477.203 205.194,478.537 202.5,480.5C 200.358,479.563 200.024,478.23 201.5,476.5 Z"/></g>
<g><path style="opacity:1" fill="#e6393e" d="M 221.5,476.5 C 224.861,477.203 225.194,478.537 222.5,480.5C 220.358,479.563 220.024,478.23 221.5,476.5 Z"/></g>
<g><path style="opacity:1" fill="#e6393e" d="M 243.5,480.5 C 242.833,480.5 242.167,480.5 241.5,480.5C 240.024,478.77 240.358,477.437 242.5,476.5C 244.642,477.437 244.976,478.77 243.5,480.5 Z"/></g>
<g><path style="opacity:1" fill="#e6393e" d="M 263.5,480.5 C 262.833,480.5 262.167,480.5 261.5,480.5C 260.024,478.77 260.358,477.437 262.5,476.5C 264.642,477.437 264.976,478.77 263.5,480.5 Z"/></g>
<g><path style="opacity:1" fill="#e6393e" d="M 283.5,480.5 C 282.833,480.5 282.167,480.5 281.5,480.5C 280.024,478.77 280.358,477.437 282.5,476.5C 284.642,477.437 284.976,478.77 283.5,480.5 Z"/></g>
<g><path style="opacity:1" fill="#e6393e" d="M 303.5,480.5 C 302.833,480.5 302.167,480.5 301.5,480.5C 300.024,478.77 300.358,477.437 302.5,476.5C 304.642,477.437 304.976,478.77 303.5,480.5 Z"/></g>
<g><path style="opacity:1" fill="#e6393e" d="M 323.5,480.5 C 322.833,480.5 322.167,480.5 321.5,480.5C 320.024,478.77 320.358,477.437 322.5,476.5C 324.642,477.437 324.976,478.77 323.5,480.5 Z"/></g>
<g><path style="opacity:1" fill="#e6393e" d="M 341.5,476.5 C 344.861,477.203 345.194,478.537 342.5,480.5C 340.358,479.563 340.024,478.23 341.5,476.5 Z"/></g>
<g><path style="opacity:1" fill="#e6393e" d="M 363.5,480.5 C 362.833,480.5 362.167,480.5 361.5,480.5C 360.024,478.77 360.358,477.437 362.5,476.5C 364.642,477.437 364.976,478.77 363.5,480.5 Z"/></g>
<g><path style="opacity:1" fill="#bcc1c7" d="M 581.5,511.5 C 596.991,510.504 612.658,510.17 628.5,510.5C 628.5,500.833 628.5,491.167 628.5,481.5C 584.5,481.5 540.5,481.5 496.5,481.5C 496.5,491.167 496.5,500.833 496.5,510.5C 512.009,510.17 527.342,510.504 542.5,511.5C 526.833,511.5 511.167,511.5 495.5,511.5C 495.5,501.167 495.5,490.833 495.5,480.5C 540.167,480.5 584.833,480.5 629.5,480.5C 629.5,490.833 629.5,501.167 629.5,511.5C 613.5,511.5 597.5,511.5 581.5,511.5 Z"/></g>
<g><path style="opacity:1" fill="#fdfdfd" d="M 241.5,480.5 C 242.167,480.5 242.833,480.5 243.5,480.5C 249.5,480.5 255.5,480.5 261.5,480.5C 262.167,480.5 262.833,480.5 263.5,480.5C 269.5,480.5 275.5,480.5 281.5,480.5C 282.167,480.5 282.833,480.5 283.5,480.5C 289.5,480.5 295.5,480.5 301.5,480.5C 302.167,480.5 302.833,480.5 303.5,480.5C 309.5,480.5 315.5,480.5 321.5,480.5C 322.167,480.5 322.833,480.5 323.5,480.5C 327.167,480.5 330.833,480.5 334.5,480.5C 334.5,490.5 334.5,500.5 334.5,510.5C 310.661,510.169 286.994,510.502 263.5,511.5C 262.167,522.167 262.167,532.833 263.5,543.5C 283.5,543.5 303.5,543.5 323.5,543.5C 324.833,553.5 324.833,563.5 323.5,573.5C 303.5,573.5 283.5,573.5 263.5,573.5C 262.167,585.833 262.167,598.167 263.5,610.5C 287.167,610.5 310.833,610.5 334.5,610.5C 334.5,620.5 334.5,630.5 334.5,640.5C 297.663,640.832 260.996,640.498 224.5,639.5C 224.5,638.833 224.5,638.167 224.5,637.5C 224.5,631.5 224.5,625.5 224.5,619.5C 224.5,618.833 224.5,618.167 224.5,617.5C 224.5,611.5 224.5,605.5 224.5,599.5C 224.5,598.833 224.5,598.167 224.5,597.5C 224.5,591.5 224.5,585.5 224.5,579.5C 224.5,578.833 224.5,578.167 224.5,577.5C 224.5,571.5 224.5,565.5 224.5,559.5C 224.5,558.833 224.5,558.167 224.5,557.5C 224.5,551.5 224.5,545.5 224.5,539.5C 224.5,538.833 224.5,538.167 224.5,537.5C 224.5,531.5 224.5,525.5 224.5,519.5C 224.5,518.833 224.5,518.167 224.5,517.5C 224.5,511.5 224.5,505.5 224.5,499.5C 224.5,498.833 224.5,498.167 224.5,497.5C 224.5,491.833 224.5,486.167 224.5,480.5C 230.167,480.5 235.833,480.5 241.5,480.5 Z"/></g>
<g><path style="opacity:1" fill="#fdfdfd" d="M 361.5,480.5 C 362.167,480.5 362.833,480.5 363.5,480.5C 372.085,480.183 380.585,480.517 389,481.5C 407.061,512.722 424.895,544.055 442.5,575.5C 442.987,576.473 443.487,577.473 444,578.5C 444.5,545.835 444.667,513.168 444.5,480.5C 457.5,480.5 470.5,480.5 483.5,480.5C 483.5,533.833 483.5,587.167 483.5,640.5C 470.15,640.833 456.817,640.499 443.5,639.5C 425.586,607.338 407.42,575.338 389,543.5C 388.5,575.832 388.333,608.165 388.5,640.5C 375.5,640.5 362.5,640.5 349.5,640.5C 349.5,587.167 349.5,533.833 349.5,480.5C 353.5,480.5 357.5,480.5 361.5,480.5 Z"/></g>
<g><path style="opacity:1" fill="#586573" d="M 444.5,480.5 C 444.667,513.168 444.5,545.835 444,578.5C 443.487,577.473 442.987,576.473 442.5,575.5C 443.167,543.833 443.833,512.167 444.5,480.5 Z"/></g>
<g><path style="opacity:1" fill="#fefefe" d="M 581.5,511.5 C 581.5,554.5 581.5,597.5 581.5,640.5C 568.5,640.5 555.5,640.5 542.5,640.5C 542.5,597.5 542.5,554.5 542.5,511.5C 527.342,510.504 512.009,510.17 496.5,510.5C 496.5,500.833 496.5,491.167 496.5,481.5C 540.5,481.5 584.5,481.5 628.5,481.5C 628.5,491.167 628.5,500.833 628.5,510.5C 612.658,510.17 596.991,510.504 581.5,511.5 Z"/></g>
<g><path style="opacity:1" fill="#e6393e" d="M 61.5,496.5 C 64.8606,497.203 65.1939,498.537 62.5,500.5C 60.3576,499.563 60.0243,498.23 61.5,496.5 Z"/></g>
<g><path style="opacity:1" fill="#e6393e" d="M 81.5,496.5 C 84.8606,497.203 85.1939,498.537 82.5,500.5C 80.3576,499.563 80.0243,498.23 81.5,496.5 Z"/></g>
<g><path style="opacity:1" fill="#e6393e" d="M 101.5,496.5 C 104.861,497.203 105.194,498.537 102.5,500.5C 100.358,499.563 100.024,498.23 101.5,496.5 Z"/></g>
<g><path style="opacity:1" fill="#e6393e" d="M 121.5,496.5 C 124.861,497.203 125.194,498.537 122.5,500.5C 120.358,499.563 120.024,498.23 121.5,496.5 Z"/></g>
<g><path style="opacity:1" fill="#e6393e" d="M 141.5,496.5 C 144.861,497.203 145.194,498.537 142.5,500.5C 140.358,499.563 140.024,498.23 141.5,496.5 Z"/></g>
<g><path style="opacity:1" fill="#e6393e" d="M 161.5,496.5 C 164.861,497.203 165.194,498.537 162.5,500.5C 160.358,499.563 160.024,498.23 161.5,496.5 Z"/></g>
<g><path style="opacity:1" fill="#e6393e" d="M 181.5,496.5 C 184.861,497.203 185.194,498.537 182.5,500.5C 180.358,499.563 180.024,498.23 181.5,496.5 Z"/></g>
<g><path style="opacity:1" fill="#e6393e" d="M 201.5,496.5 C 204.861,497.203 205.194,498.537 202.5,500.5C 200.358,499.563 200.024,498.23 201.5,496.5 Z"/></g>
<g><path style="opacity:1" fill="#e84346" d="M 224.5,497.5 C 224.5,498.167 224.5,498.833 224.5,499.5C 222.77,500.976 221.437,500.642 220.5,498.5C 221.437,496.358 222.77,496.024 224.5,497.5 Z"/></g>
<g><path style="opacity:1" fill="#e6393e" d="M 341.5,496.5 C 344.861,497.203 345.194,498.537 342.5,500.5C 340.358,499.563 340.024,498.23 341.5,496.5 Z"/></g>
<g><path style="opacity:1" fill="#e6393e" d="M 61.5,516.5 C 64.8606,517.203 65.1939,518.537 62.5,520.5C 60.3576,519.563 60.0243,518.23 61.5,516.5 Z"/></g>
<g><path style="opacity:1" fill="#e6393e" d="M 81.5,516.5 C 84.8606,517.203 85.1939,518.537 82.5,520.5C 80.3576,519.563 80.0243,518.23 81.5,516.5 Z"/></g>
<g><path style="opacity:1" fill="#e6393e" d="M 101.5,516.5 C 104.861,517.203 105.194,518.537 102.5,520.5C 100.358,519.563 100.024,518.23 101.5,516.5 Z"/></g>
<g><path style="opacity:1" fill="#e6393e" d="M 121.5,516.5 C 124.861,517.203 125.194,518.537 122.5,520.5C 120.358,519.563 120.024,518.23 121.5,516.5 Z"/></g>
<g><path style="opacity:1" fill="#e6393e" d="M 141.5,516.5 C 144.861,517.203 145.194,518.537 142.5,520.5C 140.358,519.563 140.024,518.23 141.5,516.5 Z"/></g>
<g><path style="opacity:1" fill="#e6393e" d="M 161.5,516.5 C 164.861,517.203 165.194,518.537 162.5,520.5C 160.358,519.563 160.024,518.23 161.5,516.5 Z"/></g>
<g><path style="opacity:1" fill="#e6393e" d="M 181.5,516.5 C 184.861,517.203 185.194,518.537 182.5,520.5C 180.358,519.563 180.024,518.23 181.5,516.5 Z"/></g>
<g><path style="opacity:1" fill="#e6393e" d="M 201.5,516.5 C 204.861,517.203 205.194,518.537 202.5,520.5C 200.358,519.563 200.024,518.23 201.5,516.5 Z"/></g>
<g><path style="opacity:1" fill="#e84346" d="M 224.5,517.5 C 224.5,518.167 224.5,518.833 224.5,519.5C 222.77,520.976 221.437,520.642 220.5,518.5C 221.437,516.358 222.77,516.024 224.5,517.5 Z"/></g>
<g><path style="opacity:1" fill="#e6393e" d="M 281.5,516.5 C 284.861,517.203 285.194,518.537 282.5,520.5C 280.358,519.563 280.024,518.23 281.5,516.5 Z"/></g>
<g><path style="opacity:1" fill="#e6393e" d="M 301.5,516.5 C 304.861,517.203 305.194,518.537 302.5,520.5C 300.358,519.563 300.024,518.23 301.5,516.5 Z"/></g>
<g><path style="opacity:1" fill="#e6393e" d="M 321.5,516.5 C 324.861,517.203 325.194,518.537 322.5,520.5C 320.358,519.563 320.024,518.23 321.5,516.5 Z"/></g>
<g><path style="opacity:1" fill="#e6393e" d="M 341.5,516.5 C 344.861,517.203 345.194,518.537 342.5,520.5C 340.358,519.563 340.024,518.23 341.5,516.5 Z"/></g>
<g><path style="opacity:1" fill="#d6babb" d="M 263.5,511.5 C 263.573,522.174 263.573,532.841 263.5,543.5C 262.167,532.833 262.167,522.167 263.5,511.5 Z"/></g>
<g><path style="opacity:1" fill="#e6393e" d="M 61.5,536.5 C 64.8606,537.203 65.1939,538.537 62.5,540.5C 60.3576,539.563 60.0243,538.23 61.5,536.5 Z"/></g>
<g><path style="opacity:1" fill="#e6393e" d="M 81.5,536.5 C 84.8606,537.203 85.1939,538.537 82.5,540.5C 80.3576,539.563 80.0243,538.23 81.5,536.5 Z"/></g>
<g><path style="opacity:1" fill="#e6393e" d="M 101.5,536.5 C 104.861,537.203 105.194,538.537 102.5,540.5C 100.358,539.563 100.024,538.23 101.5,536.5 Z"/></g>
<g><path style="opacity:1" fill="#e6393e" d="M 121.5,536.5 C 124.861,537.203 125.194,538.537 122.5,540.5C 120.358,539.563 120.024,538.23 121.5,536.5 Z"/></g>
<g><path style="opacity:1" fill="#e6393e" d="M 141.5,536.5 C 144.861,537.203 145.194,538.537 142.5,540.5C 140.358,539.563 140.024,538.23 141.5,536.5 Z"/></g>
<g><path style="opacity:1" fill="#e6393e" d="M 161.5,536.5 C 164.861,537.203 165.194,538.537 162.5,540.5C 160.358,539.563 160.024,538.23 161.5,536.5 Z"/></g>
<g><path style="opacity:1" fill="#e6393e" d="M 181.5,536.5 C 184.861,537.203 185.194,538.537 182.5,540.5C 180.358,539.563 180.024,538.23 181.5,536.5 Z"/></g>
<g><path style="opacity:1" fill="#e6393e" d="M 201.5,536.5 C 204.861,537.203 205.194,538.537 202.5,540.5C 200.358,539.563 200.024,538.23 201.5,536.5 Z"/></g>
<g><path style="opacity:1" fill="#e84346" d="M 224.5,537.5 C 224.5,538.167 224.5,538.833 224.5,539.5C 222.77,540.976 221.437,540.642 220.5,538.5C 221.437,536.358 222.77,536.024 224.5,537.5 Z"/></g>
<g><path style="opacity:1" fill="#e6393e" d="M 281.5,536.5 C 284.861,537.203 285.194,538.537 282.5,540.5C 280.358,539.563 280.024,538.23 281.5,536.5 Z"/></g>
<g><path style="opacity:1" fill="#e6393e" d="M 301.5,536.5 C 304.861,537.203 305.194,538.537 302.5,540.5C 300.358,539.563 300.024,538.23 301.5,536.5 Z"/></g>
<g><path style="opacity:1" fill="#e6393e" d="M 321.5,536.5 C 324.861,537.203 325.194,538.537 322.5,540.5C 320.358,539.563 320.024,538.23 321.5,536.5 Z"/></g>
<g><path style="opacity:1" fill="#e6393e" d="M 341.5,536.5 C 344.861,537.203 345.194,538.537 342.5,540.5C 340.358,539.563 340.024,538.23 341.5,536.5 Z"/></g>
<g><path style="opacity:1" fill="#e6393e" d="M 61.5,556.5 C 64.8606,557.203 65.1939,558.537 62.5,560.5C 60.3576,559.563 60.0243,558.23 61.5,556.5 Z"/></g>
<g><path style="opacity:1" fill="#e6393e" d="M 81.5,556.5 C 84.8606,557.203 85.1939,558.537 82.5,560.5C 80.3576,559.563 80.0243,558.23 81.5,556.5 Z"/></g>
<g><path style="opacity:1" fill="#e6393e" d="M 101.5,556.5 C 104.861,557.203 105.194,558.537 102.5,560.5C 100.358,559.563 100.024,558.23 101.5,556.5 Z"/></g>
<g><path style="opacity:1" fill="#e6393e" d="M 121.5,556.5 C 124.861,557.203 125.194,558.537 122.5,560.5C 120.358,559.563 120.024,558.23 121.5,556.5 Z"/></g>
<g><path style="opacity:1" fill="#e6393e" d="M 141.5,556.5 C 144.861,557.203 145.194,558.537 142.5,560.5C 140.358,559.563 140.024,558.23 141.5,556.5 Z"/></g>
<g><path style="opacity:1" fill="#e6393e" d="M 161.5,556.5 C 164.861,557.203 165.194,558.537 162.5,560.5C 160.358,559.563 160.024,558.23 161.5,556.5 Z"/></g>
<g><path style="opacity:1" fill="#e6393e" d="M 181.5,556.5 C 184.861,557.203 185.194,558.537 182.5,560.5C 180.358,559.563 180.024,558.23 181.5,556.5 Z"/></g>
<g><path style="opacity:1" fill="#e6393e" d="M 201.5,556.5 C 204.861,557.203 205.194,558.537 202.5,560.5C 200.358,559.563 200.024,558.23 201.5,556.5 Z"/></g>
<g><path style="opacity:1" fill="#e84346" d="M 224.5,557.5 C 224.5,558.167 224.5,558.833 224.5,559.5C 222.77,560.976 221.437,560.642 220.5,558.5C 221.437,556.358 222.77,556.024 224.5,557.5 Z"/></g>
<g><path style="opacity:1" fill="#e6393e" d="M 341.5,556.5 C 344.861,557.203 345.194,558.537 342.5,560.5C 340.358,559.563 340.024,558.23 341.5,556.5 Z"/></g>
<g><path style="opacity:1" fill="#e6393e" d="M 61.5,576.5 C 64.8606,577.203 65.1939,578.537 62.5,580.5C 60.3576,579.563 60.0243,578.23 61.5,576.5 Z"/></g>
<g><path style="opacity:1" fill="#e6393e" d="M 81.5,576.5 C 84.8606,577.203 85.1939,578.537 82.5,580.5C 80.3576,579.563 80.0243,578.23 81.5,576.5 Z"/></g>
<g><path style="opacity:1" fill="#e6393e" d="M 101.5,576.5 C 104.861,577.203 105.194,578.537 102.5,580.5C 100.358,579.563 100.024,578.23 101.5,576.5 Z"/></g>
<g><path style="opacity:1" fill="#e6393e" d="M 121.5,576.5 C 124.861,577.203 125.194,578.537 122.5,580.5C 120.358,579.563 120.024,578.23 121.5,576.5 Z"/></g>
<g><path style="opacity:1" fill="#e6393e" d="M 141.5,576.5 C 144.861,577.203 145.194,578.537 142.5,580.5C 140.358,579.563 140.024,578.23 141.5,576.5 Z"/></g>
<g><path style="opacity:1" fill="#e6393e" d="M 161.5,576.5 C 164.861,577.203 165.194,578.537 162.5,580.5C 160.358,579.563 160.024,578.23 161.5,576.5 Z"/></g>
<g><path style="opacity:1" fill="#e6393e" d="M 181.5,576.5 C 184.861,577.203 185.194,578.537 182.5,580.5C 180.358,579.563 180.024,578.23 181.5,576.5 Z"/></g>
<g><path style="opacity:1" fill="#e6393e" d="M 201.5,576.5 C 204.861,577.203 205.194,578.537 202.5,580.5C 200.358,579.563 200.024,578.23 201.5,576.5 Z"/></g>
<g><path style="opacity:1" fill="#e84346" d="M 224.5,577.5 C 224.5,578.167 224.5,578.833 224.5,579.5C 222.77,580.976 221.437,580.642 220.5,578.5C 221.437,576.358 222.77,576.024 224.5,577.5 Z"/></g>
<g><path style="opacity:1" fill="#e6393e" d="M 281.5,576.5 C 284.861,577.203 285.194,578.537 282.5,580.5C 280.358,579.563 280.024,578.23 281.5,576.5 Z"/></g>
<g><path style="opacity:1" fill="#e6393e" d="M 301.5,576.5 C 304.861,577.203 305.194,578.537 302.5,580.5C 300.358,579.563 300.024,578.23 301.5,576.5 Z"/></g>
<g><path style="opacity:1" fill="#e6393e" d="M 321.5,576.5 C 324.861,577.203 325.194,578.537 322.5,580.5C 320.358,579.563 320.024,578.23 321.5,576.5 Z"/></g>
<g><path style="opacity:1" fill="#e6393e" d="M 341.5,576.5 C 344.861,577.203 345.194,578.537 342.5,580.5C 340.358,579.563 340.024,578.23 341.5,576.5 Z"/></g>
<g><path style="opacity:1" fill="#d3bbbd" d="M 263.5,573.5 C 263.757,585.817 263.757,598.15 263.5,610.5C 262.167,598.167 262.167,585.833 263.5,573.5 Z"/></g>
<g><path style="opacity:1" fill="#e6393e" d="M 61.5,596.5 C 64.8606,597.203 65.1939,598.537 62.5,600.5C 60.3576,599.563 60.0243,598.23 61.5,596.5 Z"/></g>
<g><path style="opacity:1" fill="#e6393e" d="M 81.5,596.5 C 84.8606,597.203 85.1939,598.537 82.5,600.5C 80.3576,599.563 80.0243,598.23 81.5,596.5 Z"/></g>
<g><path style="opacity:1" fill="#e6393e" d="M 101.5,596.5 C 104.861,597.203 105.194,598.537 102.5,600.5C 100.358,599.563 100.024,598.23 101.5,596.5 Z"/></g>
<g><path style="opacity:1" fill="#e6393e" d="M 121.5,596.5 C 124.861,597.203 125.194,598.537 122.5,600.5C 120.358,599.563 120.024,598.23 121.5,596.5 Z"/></g>
<g><path style="opacity:1" fill="#e6393e" d="M 141.5,596.5 C 144.861,597.203 145.194,598.537 142.5,600.5C 140.358,599.563 140.024,598.23 141.5,596.5 Z"/></g>
<g><path style="opacity:1" fill="#e6393e" d="M 161.5,596.5 C 164.861,597.203 165.194,598.537 162.5,600.5C 160.358,599.563 160.024,598.23 161.5,596.5 Z"/></g>
<g><path style="opacity:1" fill="#e6393e" d="M 181.5,596.5 C 184.861,597.203 185.194,598.537 182.5,600.5C 180.358,599.563 180.024,598.23 181.5,596.5 Z"/></g>
<g><path style="opacity:1" fill="#e6393e" d="M 201.5,596.5 C 204.861,597.203 205.194,598.537 202.5,600.5C 200.358,599.563 200.024,598.23 201.5,596.5 Z"/></g>
<g><path style="opacity:1" fill="#e84346" d="M 224.5,597.5 C 224.5,598.167 224.5,598.833 224.5,599.5C 222.77,600.976 221.437,600.642 220.5,598.5C 221.437,596.358 222.77,596.024 224.5,597.5 Z"/></g>
<g><path style="opacity:1" fill="#e6393e" d="M 281.5,596.5 C 284.861,597.203 285.194,598.537 282.5,600.5C 280.358,599.563 280.024,598.23 281.5,596.5 Z"/></g>
<g><path style="opacity:1" fill="#e6393e" d="M 301.5,596.5 C 304.861,597.203 305.194,598.537 302.5,600.5C 300.358,599.563 300.024,598.23 301.5,596.5 Z"/></g>
<g><path style="opacity:1" fill="#e6393e" d="M 321.5,596.5 C 324.861,597.203 325.194,598.537 322.5,600.5C 320.358,599.563 320.024,598.23 321.5,596.5 Z"/></g>
<g><path style="opacity:1" fill="#e6393e" d="M 341.5,596.5 C 344.861,597.203 345.194,598.537 342.5,600.5C 340.358,599.563 340.024,598.23 341.5,596.5 Z"/></g>
<g><path style="opacity:1" fill="#e6393e" d="M 61.5,616.5 C 64.8606,617.203 65.1939,618.537 62.5,620.5C 60.3576,619.563 60.0243,618.23 61.5,616.5 Z"/></g>
<g><path style="opacity:1" fill="#e6393e" d="M 81.5,616.5 C 84.8606,617.203 85.1939,618.537 82.5,620.5C 80.3576,619.563 80.0243,618.23 81.5,616.5 Z"/></g>
<g><path style="opacity:1" fill="#e6393e" d="M 101.5,616.5 C 104.861,617.203 105.194,618.537 102.5,620.5C 100.358,619.563 100.024,618.23 101.5,616.5 Z"/></g>
<g><path style="opacity:1" fill="#e6393e" d="M 121.5,616.5 C 124.861,617.203 125.194,618.537 122.5,620.5C 120.358,619.563 120.024,618.23 121.5,616.5 Z"/></g>
<g><path style="opacity:1" fill="#e6393e" d="M 141.5,616.5 C 144.861,617.203 145.194,618.537 142.5,620.5C 140.358,619.563 140.024,618.23 141.5,616.5 Z"/></g>
<g><path style="opacity:1" fill="#e6393e" d="M 161.5,616.5 C 164.861,617.203 165.194,618.537 162.5,620.5C 160.358,619.563 160.024,618.23 161.5,616.5 Z"/></g>
<g><path style="opacity:1" fill="#e6393e" d="M 181.5,616.5 C 184.861,617.203 185.194,618.537 182.5,620.5C 180.358,619.563 180.024,618.23 181.5,616.5 Z"/></g>
<g><path style="opacity:1" fill="#e6393e" d="M 201.5,616.5 C 204.861,617.203 205.194,618.537 202.5,620.5C 200.358,619.563 200.024,618.23 201.5,616.5 Z"/></g>
<g><path style="opacity:1" fill="#e84346" d="M 224.5,617.5 C 224.5,618.167 224.5,618.833 224.5,619.5C 222.77,620.976 221.437,620.642 220.5,618.5C 221.437,616.358 222.77,616.024 224.5,617.5 Z"/></g>
<g><path style="opacity:1" fill="#e6393e" d="M 341.5,616.5 C 344.861,617.203 345.194,618.537 342.5,620.5C 340.358,619.563 340.024,618.23 341.5,616.5 Z"/></g>
<g><path style="opacity:1" fill="#e6393e" d="M 61.5,636.5 C 64.8606,637.203 65.1939,638.537 62.5,640.5C 60.3576,639.563 60.0243,638.23 61.5,636.5 Z"/></g>
<g><path style="opacity:1" fill="#e6393e" d="M 81.5,636.5 C 84.8606,637.203 85.1939,638.537 82.5,640.5C 80.3576,639.563 80.0243,638.23 81.5,636.5 Z"/></g>
<g><path style="opacity:1" fill="#e6393e" d="M 101.5,636.5 C 104.861,637.203 105.194,638.537 102.5,640.5C 100.358,639.563 100.024,638.23 101.5,636.5 Z"/></g>
<g><path style="opacity:1" fill="#e6393e" d="M 121.5,636.5 C 124.861,637.203 125.194,638.537 122.5,640.5C 120.358,639.563 120.024,638.23 121.5,636.5 Z"/></g>
<g><path style="opacity:1" fill="#e6393e" d="M 141.5,636.5 C 144.861,637.203 145.194,638.537 142.5,640.5C 140.358,639.563 140.024,638.23 141.5,636.5 Z"/></g>
<g><path style="opacity:1" fill="#e6393e" d="M 161.5,636.5 C 164.861,637.203 165.194,638.537 162.5,640.5C 160.358,639.563 160.024,638.23 161.5,636.5 Z"/></g>
<g><path style="opacity:1" fill="#e6393e" d="M 181.5,636.5 C 184.861,637.203 185.194,638.537 182.5,640.5C 180.358,639.563 180.024,638.23 181.5,636.5 Z"/></g>
<g><path style="opacity:1" fill="#e6393e" d="M 201.5,636.5 C 204.861,637.203 205.194,638.537 202.5,640.5C 200.358,639.563 200.024,638.23 201.5,636.5 Z"/></g>
<g><path style="opacity:1" fill="#e84346" d="M 224.5,637.5 C 224.5,638.167 224.5,638.833 224.5,639.5C 222.77,640.976 221.437,640.642 220.5,638.5C 221.437,636.358 222.77,636.024 224.5,637.5 Z"/></g>
<g><path style="opacity:1" fill="#e6393e" d="M 341.5,636.5 C 344.861,637.203 345.194,638.537 342.5,640.5C 340.358,639.563 340.024,638.23 341.5,636.5 Z"/></g>
<g><path style="opacity:1" fill="#e6393e" d="M 61.5,656.5 C 64.8606,657.203 65.1939,658.537 62.5,660.5C 60.3576,659.563 60.0243,658.23 61.5,656.5 Z"/></g>
<g><path style="opacity:1" fill="#e6393e" d="M 81.5,656.5 C 84.8606,657.203 85.1939,658.537 82.5,660.5C 80.3576,659.563 80.0243,658.23 81.5,656.5 Z"/></g>
<g><path style="opacity:1" fill="#e6393e" d="M 101.5,656.5 C 104.861,657.203 105.194,658.537 102.5,660.5C 100.358,659.563 100.024,658.23 101.5,656.5 Z"/></g>
<g><path style="opacity:1" fill="#e6393e" d="M 121.5,656.5 C 124.861,657.203 125.194,658.537 122.5,660.5C 120.358,659.563 120.024,658.23 121.5,656.5 Z"/></g>
<g><path style="opacity:1" fill="#e6393e" d="M 141.5,656.5 C 144.861,657.203 145.194,658.537 142.5,660.5C 140.358,659.563 140.024,658.23 141.5,656.5 Z"/></g>
<g><path style="opacity:1" fill="#e6393e" d="M 161.5,656.5 C 164.861,657.203 165.194,658.537 162.5,660.5C 160.358,659.563 160.024,658.23 161.5,656.5 Z"/></g>
<g><path style="opacity:1" fill="#e6393e" d="M 181.5,656.5 C 184.861,657.203 185.194,658.537 182.5,660.5C 180.358,659.563 180.024,658.23 181.5,656.5 Z"/></g>
<g><path style="opacity:1" fill="#e6393e" d="M 201.5,656.5 C 204.861,657.203 205.194,658.537 202.5,660.5C 200.358,659.563 200.024,658.23 201.5,656.5 Z"/></g>
<g><path style="opacity:1" fill="#e6393e" d="M 221.5,656.5 C 224.861,657.203 225.194,658.537 222.5,660.5C 220.358,659.563 220.024,658.23 221.5,656.5 Z"/></g>
<g><path style="opacity:1" fill="#e6393e" d="M 241.5,656.5 C 244.861,657.203 245.194,658.537 242.5,660.5C 240.358,659.563 240.024,658.23 241.5,656.5 Z"/></g>
<g><path style="opacity:1" fill="#e6393e" d="M 261.5,656.5 C 264.861,657.203 265.194,658.537 262.5,660.5C 260.358,659.563 260.024,658.23 261.5,656.5 Z"/></g>
<g><path style="opacity:1" fill="#e6393e" d="M 281.5,656.5 C 284.861,657.203 285.194,658.537 282.5,660.5C 280.358,659.563 280.024,658.23 281.5,656.5 Z"/></g>
<g><path style="opacity:1" fill="#e6393e" d="M 301.5,656.5 C 304.861,657.203 305.194,658.537 302.5,660.5C 300.358,659.563 300.024,658.23 301.5,656.5 Z"/></g>
<g><path style="opacity:1" fill="#e6393e" d="M 321.5,656.5 C 324.861,657.203 325.194,658.537 322.5,660.5C 320.358,659.563 320.024,658.23 321.5,656.5 Z"/></g>
<g><path style="opacity:1" fill="#e6393e" d="M 341.5,656.5 C 344.861,657.203 345.194,658.537 342.5,660.5C 340.358,659.563 340.024,658.23 341.5,656.5 Z"/></g>
<g><path style="opacity:1" fill="#e6393e" d="M 361.5,656.5 C 364.861,657.203 365.194,658.537 362.5,660.5C 360.358,659.563 360.024,658.23 361.5,656.5 Z"/></g>
<g><path style="opacity:1" fill="#e6393e" d="M 61.5,676.5 C 64.8606,677.203 65.1939,678.537 62.5,680.5C 60.3576,679.563 60.0243,678.23 61.5,676.5 Z"/></g>
<g><path style="opacity:1" fill="#e6393e" d="M 81.5,676.5 C 84.8606,677.203 85.1939,678.537 82.5,680.5C 80.3576,679.563 80.0243,678.23 81.5,676.5 Z"/></g>
<g><path style="opacity:1" fill="#e6393e" d="M 101.5,676.5 C 104.861,677.203 105.194,678.537 102.5,680.5C 100.358,679.563 100.024,678.23 101.5,676.5 Z"/></g>
<g><path style="opacity:1" fill="#e6393e" d="M 121.5,676.5 C 124.861,677.203 125.194,678.537 122.5,680.5C 120.358,679.563 120.024,678.23 121.5,676.5 Z"/></g>
<g><path style="opacity:1" fill="#e6393e" d="M 141.5,676.5 C 144.861,677.203 145.194,678.537 142.5,680.5C 140.358,679.563 140.024,678.23 141.5,676.5 Z"/></g>
<g><path style="opacity:1" fill="#e6393e" d="M 161.5,676.5 C 164.861,677.203 165.194,678.537 162.5,680.5C 160.358,679.563 160.024,678.23 161.5,676.5 Z"/></g>
<g><path style="opacity:1" fill="#e6393e" d="M 181.5,676.5 C 184.861,677.203 185.194,678.537 182.5,680.5C 180.358,679.563 180.024,678.23 181.5,676.5 Z"/></g>
<g><path style="opacity:1" fill="#e6393e" d="M 201.5,676.5 C 204.861,677.203 205.194,678.537 202.5,680.5C 200.358,679.563 200.024,678.23 201.5,676.5 Z"/></g>
<g><path style="opacity:1" fill="#e6393e" d="M 221.5,676.5 C 224.861,677.203 225.194,678.537 222.5,680.5C 220.358,679.563 220.024,678.23 221.5,676.5 Z"/></g>
<g><path style="opacity:1" fill="#e6393e" d="M 241.5,676.5 C 244.861,677.203 245.194,678.537 242.5,680.5C 240.358,679.563 240.024,678.23 241.5,676.5 Z"/></g>
<g><path style="opacity:1" fill="#e6393e" d="M 261.5,676.5 C 264.861,677.203 265.194,678.537 262.5,680.5C 260.358,679.563 260.024,678.23 261.5,676.5 Z"/></g>
<g><path style="opacity:1" fill="#e6393e" d="M 281.5,676.5 C 284.861,677.203 285.194,678.537 282.5,680.5C 280.358,679.563 280.024,678.23 281.5,676.5 Z"/></g>
<g><path style="opacity:1" fill="#e6393e" d="M 301.5,676.5 C 304.861,677.203 305.194,678.537 302.5,680.5C 300.358,679.563 300.024,678.23 301.5,676.5 Z"/></g>
<g><path style="opacity:1" fill="#e6393e" d="M 321.5,676.5 C 324.861,677.203 325.194,678.537 322.5,680.5C 320.358,679.563 320.024,678.23 321.5,676.5 Z"/></g>
<g><path style="opacity:1" fill="#e6393e" d="M 341.5,676.5 C 344.861,677.203 345.194,678.537 342.5,680.5C 340.358,679.563 340.024,678.23 341.5,676.5 Z"/></g>
<g><path style="opacity:1" fill="#e6393e" d="M 361.5,676.5 C 364.861,677.203 365.194,678.537 362.5,680.5C 360.358,679.563 360.024,678.23 361.5,676.5 Z"/></g>
<g><path style="opacity:1" fill="#e6393e" d="M 61.5,696.5 C 64.8606,697.203 65.1939,698.537 62.5,700.5C 60.3576,699.563 60.0243,698.23 61.5,696.5 Z"/></g>
<g><path style="opacity:1" fill="#e6393e" d="M 81.5,696.5 C 84.8606,697.203 85.1939,698.537 82.5,700.5C 80.3576,699.563 80.0243,698.23 81.5,696.5 Z"/></g>
<g><path style="opacity:1" fill="#e6393e" d="M 101.5,696.5 C 104.861,697.203 105.194,698.537 102.5,700.5C 100.358,699.563 100.024,698.23 101.5,696.5 Z"/></g>
<g><path style="opacity:1" fill="#e6393e" d="M 121.5,696.5 C 124.861,697.203 125.194,698.537 122.5,700.5C 120.358,699.563 120.024,698.23 121.5,696.5 Z"/></g>
<g><path style="opacity:1" fill="#e6393e" d="M 141.5,696.5 C 144.861,697.203 145.194,698.537 142.5,700.5C 140.358,699.563 140.024,698.23 141.5,696.5 Z"/></g>
<g><path style="opacity:1" fill="#e6393e" d="M 161.5,696.5 C 164.861,697.203 165.194,698.537 162.5,700.5C 160.358,699.563 160.024,698.23 161.5,696.5 Z"/></g>
<g><path style="opacity:1" fill="#e6393e" d="M 181.5,696.5 C 184.861,697.203 185.194,698.537 182.5,700.5C 180.358,699.563 180.024,698.23 181.5,696.5 Z"/></g>
<g><path style="opacity:1" fill="#e6393e" d="M 201.5,696.5 C 204.861,697.203 205.194,698.537 202.5,700.5C 200.358,699.563 200.024,698.23 201.5,696.5 Z"/></g>
<g><path style="opacity:1" fill="#e6393e" d="M 221.5,696.5 C 224.861,697.203 225.194,698.537 222.5,700.5C 220.358,699.563 220.024,698.23 221.5,696.5 Z"/></g>
<g><path style="opacity:1" fill="#e6393e" d="M 241.5,696.5 C 244.861,697.203 245.194,698.537 242.5,700.5C 240.358,699.563 240.024,698.23 241.5,696.5 Z"/></g>
<g><path style="opacity:1" fill="#e6393e" d="M 261.5,696.5 C 264.861,697.203 265.194,698.537 262.5,700.5C 260.358,699.563 260.024,698.23 261.5,696.5 Z"/></g>
<g><path style="opacity:1" fill="#e6393e" d="M 281.5,696.5 C 284.861,697.203 285.194,698.537 282.5,700.5C 280.358,699.563 280.024,698.23 281.5,696.5 Z"/></g>
<g><path style="opacity:1" fill="#e6393e" d="M 301.5,696.5 C 304.861,697.203 305.194,698.537 302.5,700.5C 300.358,699.563 300.024,698.23 301.5,696.5 Z"/></g>
<g><path style="opacity:1" fill="#e6393e" d="M 321.5,696.5 C 324.861,697.203 325.194,698.537 322.5,700.5C 320.358,699.563 320.024,698.23 321.5,696.5 Z"/></g>
<g><path style="opacity:1" fill="#e6393e" d="M 341.5,696.5 C 344.861,697.203 345.194,698.537 342.5,700.5C 340.358,699.563 340.024,698.23 341.5,696.5 Z"/></g>
<g><path style="opacity:1" fill="#e6393e" d="M 361.5,696.5 C 364.861,697.203 365.194,698.537 362.5,700.5C 360.358,699.563 360.024,698.23 361.5,696.5 Z"/></g>
</svg>
